#!OML:ASF X:\für Bonn\!DataBase\2005_08_10_Bjorn_Final\c3d\bjorn.ASF
:FULLY-SPECIFIED
:DEGREES
137
root 0.0769057 17.8952 2.12206 -176.812 -3.3365 179.958
lowerback 2.8563 1.02885 1.6923
upperback 7.75607 0.741041 -0.864149
thorax 6.50491 0.223575 -1.85764
lowerneck -17.771 -4.14379 -0.876056
upperneck 9.25519 -5.70579 2.44777
head 5.77497 -2.62368 0.346904
rclavicle 5.11871e-015 -8.94531e-016
rhumerus 75.0237 -1.90444 -68.689
rradius 12.2083
rwrist 37.8169
rhand -11.7131 10.5969
rfingers 7.12502
rthumb 14.3335 -18.8883
lclavicle 5.11871e-015 -8.94531e-016
lhumerus 78.19 -8.1335 45.0791
lradius 16.5025
lwrist -35.5956
lhand -14.9532 -6.7498
lfingers 7.12502
lthumb 11.2099 22.9307
rfemur -32.3623 -14.1537 14.9365
rtibia 62.6848
rfoot -19.7444 15.7363
rtoes -25.3074
lfemur -30.2097 4.87285 -18.8716
ltibia 65.2296
lfoot -18.5621 -7.05064
ltoes -18.5381
138
root 0.0732729 18.0762 2.07752 -176.579 -3.42373 179.95
lowerback 2.01556 0.987019 1.61926
upperback 7.51984 0.739651 -0.879297
thorax 6.73149 0.245569 -1.82386
lowerneck -17.2231 -4.09189 -0.909834
upperneck 9.39893 -5.62843 2.44337
head 5.73199 -2.58849 0.367719
rclavicle 4.42296e-015 -1.88845e-015
rhumerus 74.527 -1.6755 -68.5198
rradius 12.3926
rwrist 37.5061
rhand -11.7758 10.671
rfingers 7.12502
rthumb 14.2731 -18.8185
lclavicle 4.42296e-015 -1.88845e-015
lhumerus 77.9638 -8.33025 45.3297
lradius 16.4598
lwrist -37.0005
lhand -15.1792 -6.73363
lfingers 7.12502
lthumb 10.9919 22.9586
rfemur -31.1437 -14.1699 14.9978
rtibia 60.2612
rfoot -18.9085 15.4386
rtoes -25.3072
lfemur -28.9948 5.00102 -18.9181
ltibia 62.6813
lfoot -17.7466 -6.96768
ltoes -18.0695
139
root 0.0694442 18.2516 2.03299 -176.358 -3.48375 179.966
lowerback 1.16751 0.970148 1.59086
upperback 7.33572 0.761079 -0.897058
thorax 7.02266 0.278278 -1.81734
lowerneck -16.8733 -4.05519 -0.875464
upperneck 9.64203 -5.57563 2.33067
head 5.74726 -2.56842 0.336103
rclavicle 1.56046e-014 -2.88238e-015
rhumerus 74.1013 -1.48776 -68.2796
rradius 12.5422
rwrist 37.1246
rhand -11.7498 10.7319
rfingers 7.12502
rthumb 14.2981 -18.7559
lclavicle 1.56046e-014 -2.88238e-015
lhumerus 77.8755 -8.50836 45.3319
lradius 16.3804
lwrist -38.2686
lhand -14.9753 -6.90663
lfingers 7.12502
lthumb 11.1886 22.775
rfemur -29.9471 -14.142 15.0805
rtibia 57.8764
rfoot -18.0479 15.1293
rtoes -25.4416
lfemur -27.8004 5.18772 -18.9377
ltibia 60.1901
lfoot -16.9458 -6.89989
ltoes -17.663
140
root 0.0654268 18.4197 1.9891 -176.107 -3.56779 179.977
lowerback 0.291256 0.942664 1.54532
upperback 7.17591 0.763364 -0.904069
thorax 7.35692 0.298471 -1.79085
lowerneck -16.7484 -3.99991 -0.741244
upperneck 9.99763 -5.50239 2.06978
head 5.82712 -2.54306 0.238296
rclavicle -3.08116e-015 -9.93923e-016
rhumerus 73.7111 -1.30484 -68.1002
rradius 12.7413
rwrist 36.8369
rhand -11.4918 10.8061
rfingers 7.12502
rthumb 14.5467 -18.6639
lclavicle -3.08116e-015 -9.93923e-016
lhumerus 77.7939 -8.6136 45.445
lradius 16.2808
lwrist -39.6744
lhand -14.8444 -7.10395
lfingers 7.12502
lthumb 11.3149 22.5708
rfemur -28.822 -14.134 15.1636
rtibia 55.5496
rfoot -17.196 14.7653
rtoes -25.6482
lfemur -26.6769 5.35291 -18.9633
ltibia 57.7621
lfoot -16.1214 -6.81175
ltoes -17.4178
141
root 0.0620644 18.5791 1.94696 -175.838 -3.64226 179.973
lowerback -0.587474 0.914901 1.48869
upperback 7.01629 0.764647 -0.919425
thorax 7.6947 0.316669 -1.76709
lowerneck -16.661 -3.95266 -0.624971
upperneck 10.3715 -5.43746 1.81664
head 5.92011 -2.52211 0.143764
rclavicle 3.62782e-015 -8.54774e-015
rhumerus 73.3402 -1.1161 -67.9265
rradius 12.9349
rwrist 36.6444
rhand -11.087 10.8491
rfingers 7.12502
rthumb 14.9367 -18.5924
lclavicle 3.62782e-015 -8.54774e-015
lhumerus 77.7422 -8.70248 45.5853
lradius 16.1485
lwrist -41.0194
lhand -14.6991 -7.26134
lfingers 7.12502
lthumb 11.455 22.4057
rfemur -27.7573 -14.0736 15.2287
rtibia 53.2803
rfoot -16.2951 14.4274
rtoes -25.6413
lfemur -25.6091 5.5516 -18.9996
ltibia 55.3884
lfoot -15.2993 -6.76946
ltoes -17.2105
142
root 0.0590895 18.7299 1.90537 -175.566 -3.73057 179.966
lowerback -1.46039 0.885988 1.42475
upperback 6.86793 0.762188 -0.936598
thorax 8.04292 0.331052 -1.7418
lowerneck -16.6293 -3.91258 -0.482051
upperneck 10.7441 -5.38823 1.56294
head 6.02164 -2.50821 0.0419218
rclavicle 1.78409e-014 -7.55382e-015
rhumerus 72.9801 -0.935894 -67.7573
rradius 12.9673
rwrist 36.9277
rhand -11.1038 10.8799
rfingers 7.12502
rthumb 14.9205 -18.5628
lclavicle 1.78409e-014 -7.55382e-015
lhumerus 77.7514 -8.80041 45.566
lradius 16.0236
lwrist -41.9981
lhand -14.3351 -7.47369
lfingers 7.12502
lthumb 11.806 22.1735
rfemur -26.7386 -13.9981 15.2875
rtibia 51.0841
rfoot -15.3361 14.0818
rtoes -25.4338
lfemur -24.58 5.72695 -19.031
ltibia 53.0679
lfoot -14.4642 -6.75506
ltoes -16.9569
143
root 0.0566092 18.8707 1.86536 -175.299 -3.83754 179.956
lowerback -2.31646 0.851725 1.3669
upperback 6.72974 0.749816 -0.953627
thorax 8.39384 0.33938 -1.72123
lowerneck -16.6584 -3.86978 -0.417427
upperneck 11.1409 -5.32987 1.38892
head 6.14577 -2.48676 -0.0231293
rclavicle -9.54166e-015 -1.59028e-015
rhumerus 72.5979 -0.731984 -67.5034
rradius 12.9993
rwrist 37.094
rhand -11.1968 10.9017
rfingers 7.12502
rthumb 14.8309 -18.5476
lclavicle -9.54166e-015 -1.59028e-015
lhumerus 77.7761 -8.90447 45.527
lradius 15.7942
lwrist -43.3541
lhand -14.2561 -7.58159
lfingers 7.12502
lthumb 11.8821 22.0613
rfemur -25.7647 -13.9157 15.3415
rtibia 48.9828
rfoot -14.4221 13.7168
rtoes -25.2709
lfemur -23.5737 5.87766 -19.051
ltibia 50.8049
lfoot -13.56 -6.80866
ltoes -16.2972
144
root 0.0547325 19.0015 1.82794 -175.03 -3.96038 179.963
lowerback -3.10996 0.80341 1.30088
upperback 6.5505 0.720684 -0.948737
thorax 8.66321 0.337668 -1.67517
lowerneck -16.5796 -3.8269 -0.358389
upperneck 11.4621 -5.26907 1.21648
head 6.22843 -2.46665 -0.0836544
rclavicle -1.80894e-014 5.96354e-015
rhumerus 72.3347 -0.500646 -67.1298
rradius 12.7608
rwrist 37.6473
rhand -11.6172 10.9471
rfingers 7.12502
rthumb 14.4258 -18.5315
lclavicle -1.80894e-014 5.96354e-015
lhumerus 77.7323 -9.04225 45.457
lradius 15.5178
lwrist -44.9236
lhand -14.5504 -7.43163
lfingers 7.12502
lthumb 11.5984 22.2274
rfemur -24.8538 -13.8503 15.4149
rtibia 46.9936
rfoot -13.5186 13.3485
rtoes -25.0529
lfemur -22.6179 6.01026 -19.0297
ltibia 48.6128
lfoot -12.5715 -6.99096
ltoes -15.1773
145
root 0.0517334 19.1172 1.7914 -174.846 -4.08349 179.953
lowerback -3.7674 0.759625 1.22362
upperback 6.36439 0.696317 -0.944111
thorax 8.8455 0.334941 -1.62393
lowerneck -16.5068 -3.78863 -0.362858
upperneck 11.8249 -5.21422 1.12487
head 6.32979 -2.44593 -0.10981
rclavicle -1.44119e-015 -1.98785e-016
rhumerus 72.2975 -0.301951 -66.5339
rradius 12.3336
rwrist 38.1003
rhand -11.7835 11.0134
rfingers 7.12502
rthumb 14.2656 -18.4767
lclavicle -1.44119e-015 -1.98785e-016
lhumerus 77.6868 -9.22657 45.3339
lradius 15.2533
lwrist -46.0805
lhand -14.8189 -7.30742
lfingers 7.12502
lthumb 11.3394 22.366
rfemur -23.9242 -13.7955 15.4363
rtibia 45.1466
rfoot -12.6748 13.0011
rtoes -24.8542
lfemur -21.621 6.12579 -19.0263
ltibia 46.5296
lfoot -11.6104 -7.1419
ltoes -14.351
